<svg width="335" height="42" viewBox="0 0 335 42" fill="none" xmlns="http://www.w3.org/2000/svg">
<path d="M332.978 1.43777C334.411 2.87156 334.411 5.19621 332.978 6.63C331.544 8.0638 329.219 8.06381 327.785 6.63001C326.352 5.19621 326.352 2.87157 327.785 1.43777C329.219 0.00397366 331.544 0.00397012 332.978 1.43777ZM298.027 40.347L298.541 40.805L298.335 41.0354L298.027 41.0354L298.027 40.347ZM330.896 4.49184L298.541 40.805L297.513 39.8891L329.868 3.57594L330.896 4.49184ZM298.027 41.0354L-7.44973e-06 41.0356L1.07366e-05 39.6587L298.027 39.6586L298.027 41.0354Z" fill="#992F3B"/>
</svg>
