<svg width="226" height="42" viewBox="0 0 226 42" fill="none" xmlns="http://www.w3.org/2000/svg">
<path d="M223.978 1.93799C225.412 3.37178 225.412 5.69643 223.978 7.13022C222.544 8.56402 220.219 8.56403 218.786 7.13023C217.352 5.69643 217.352 3.37178 218.786 1.93799C220.219 0.504187 222.544 0.504189 223.978 1.93799ZM189.027 40.8472L189.541 41.3052L189.335 41.5356L189.027 41.5356L189.027 40.8472ZM221.896 4.99206L189.541 41.3052L188.513 40.3893L220.868 4.07616L221.896 4.99206ZM189.027 41.5356L5.01474e-06 41.5356L1.95909e-06 40.1588L189.027 40.1588L189.027 41.5356Z" fill="#992F3B"/>
</svg>
