<svg width="335" height="42" viewBox="0 0 335 42" fill="none" xmlns="http://www.w3.org/2000/svg">
<path d="M332.978 1.43801C334.411 2.87181 334.411 5.19645 332.978 6.63025C331.544 8.06405 329.219 8.06405 327.785 6.63025C326.352 5.19646 326.352 2.87181 327.785 1.43802C329.219 0.0042178 331.544 0.00421426 332.978 1.43801ZM298.027 40.3473L298.541 40.8052L298.335 41.0356L298.027 41.0357L298.027 40.3473ZM330.896 4.49208L298.541 40.8052L297.513 39.8893L329.868 3.57618L330.896 4.49208ZM298.027 41.0357L-7.44973e-06 41.0358L1.07366e-05 39.659L298.027 39.6589L298.027 41.0357Z" fill="#992F3B"/>
</svg>
