<svg width="549" height="66" viewBox="0 0 549 66" fill="none" xmlns="http://www.w3.org/2000/svg">
<path d="M547.039 1.84916C549.326 4.13603 549.326 7.84377 547.039 10.1306C544.752 12.4175 541.045 12.4175 538.758 10.1306C536.471 7.84376 536.471 4.13602 538.758 1.84915C541.045 -0.437716 544.752 -0.437721 547.039 1.84916ZM491.293 63.9083L492.113 64.6387L491.786 65.0063L491.293 65.0063L491.293 63.9083ZM543.718 6.72032L492.113 64.6387L490.474 63.1779L542.079 5.25947L543.718 6.72032ZM491.293 65.0063L6.01425e-05 65.0062L7.2618e-05 62.8103L491.293 62.8103L491.293 65.0063Z" fill="#992F3B"/>
</svg>
